<svg width="696" height="464" viewBox="0 0 696 464" fill="none" xmlns="http://www.w3.org/2000/svg">
<g clip-path="url(#clip0)">
<path d="M411.87 318.821C411.87 397.428 475.593 461.565 554.201 461.565C632.808 461.565 696.532 397.428 696.532 318.821C696.532 240.214 632.808 176.077 554.201 176.077C475.593 176.077 411.87 240.214 411.87 318.821Z" fill="#7BCF79"/>
<path d="M572.316 85.8833C570.125 86.6786 568.29 88.2313 567.142 90.2612C566.262 92.0922 566.297 94.2283 565.699 96.1297C564.432 100.214 560.631 102.902 558.272 106.458C555.069 111.282 554.752 117.432 554.905 123.23C555.057 129.028 555.832 134.967 554.424 140.554C553.743 143.288 552.57 145.906 552.077 148.687C551.502 152.068 551.984 155.6 551.15 158.922C550.211 161.893 548.753 164.675 546.845 167.138L539.347 178.124C542.705 177.326 546.012 176.326 549.25 175.131C548.253 178.278 546.401 181.086 543.9 183.241L549.32 176.668C550.423 175.159 551.79 173.862 553.356 172.842C555.351 171.668 557.709 171.527 559.938 171.081C564.244 170.201 568.538 167.995 570.65 164.133C573.454 158.981 571.659 152.502 573.231 146.845C574.405 142.713 577.209 139.31 579.156 135.495C583.591 126.88 583.322 116.716 584.706 107.127C585.5 103.087 586.009 98.9967 586.231 94.8855C586.231 91.8457 585.926 86.0594 582.711 84.5219C580.013 83.2308 574.874 84.7918 572.316 85.8833Z" fill="#192534"/>
<path fill-rule="evenodd" clip-rule="evenodd" d="M609.24 450.331C608.863 445.204 608.491 440.08 608.206 434.962C607.754 429.605 607.86 424.217 608.523 418.882C609.212 414.998 610.184 411.169 611.433 407.427C611.817 406.162 612.205 404.897 612.593 403.631C616.371 391.303 620.174 378.892 621.429 366.066C622.813 351.923 623.799 331.947 616.161 319.999C616.013 319.772 615.848 319.556 615.668 319.353C614.244 317.801 612.013 317.479 609.719 317.149C607.799 316.873 605.836 316.59 604.264 315.574C601.361 313.743 598.161 312.433 594.808 311.701C581.906 308.645 568.5 311.756 555.118 314.862C547.581 316.611 540.052 318.359 532.624 319.001C531.377 320.556 530.221 322.182 529.163 323.872C528.041 325.643 527.015 327.472 526.089 329.353C525.467 330.633 524.846 331.947 524.294 333.273C524.122 333.688 523.961 334.081 523.799 334.474C523.718 334.672 523.637 334.869 523.555 335.069C519.949 344.25 517.922 354.224 515.938 363.988C515.778 364.772 515.619 365.555 515.46 366.336C514.834 369.396 514.185 372.451 513.512 375.503C513.417 375.909 513.315 376.391 513.218 376.852C513.194 376.963 513.171 377.073 513.148 377.181C509.198 394.998 504.568 412.603 499.257 429.997C498.94 431.053 498.611 432.122 498.283 433.178C498.222 433.384 498.161 433.591 498.099 433.798C497.957 434.273 497.815 434.749 497.684 435.232C496.483 439.059 495.631 442.987 495.138 446.969C495.093 447.48 495.054 447.993 495.021 448.505C506.674 453.868 519.171 457.698 532.258 459.735C531.79 455.8 531.606 451.833 532.836 448.107C533.581 445.748 534.878 443.613 536.176 441.476C536.635 440.72 537.094 439.965 537.529 439.199C539.414 435.859 540.856 432.32 542.297 428.782C543.474 425.891 544.651 423.001 546.07 420.22C547.912 416.578 550.165 413.128 552.412 409.688C556.319 403.706 560.205 397.756 561.874 390.878C562.062 391.43 562.238 392.028 562.39 392.603C563.812 397.694 564.07 402.848 564.333 408.126C564.39 409.248 564.446 410.377 564.514 411.511C565.482 427.982 568.005 444.321 572.047 460.312C585.074 458.672 597.553 455.262 609.24 450.331Z" fill="#192534"/>
<path d="M568.996 154.931C568.55 159.978 567.494 165.917 562.907 168.03C560.314 169.203 557.287 168.793 554.471 169.203C549.144 170.072 544.78 174.168 542.304 178.957C539.828 183.745 538.995 189.203 538.42 194.567C537.705 201.28 537.47 208.569 541.154 214.226C544.134 218.815 549.285 221.597 554.565 223.017C559.877 224.403 565.429 224.602 570.827 223.6C576.224 222.598 581.335 220.419 585.797 217.219C590.054 213.888 593.913 210.075 597.295 205.858C604.945 196.95 612.653 187.184 614.214 175.541C614.401 174.215 614.39 172.619 613.299 171.833C612.554 171.414 611.694 171.245 610.846 171.351L603.502 171.48C601.636 171.48 599.536 171.48 598.281 170.084C597.025 168.687 597.107 166.915 597.107 165.201L597.671 143.922C597.788 143.171 597.616 142.404 597.19 141.774C596.724 141.349 596.129 141.092 595.5 141.047C591.464 140.366 587.287 141.047 583.275 139.943C579.508 138.911 573.607 134.58 570.838 139.028C568.515 142.878 569.383 150.647 568.996 154.931Z" fill="#FFC1C7"/>
<path opacity="0.1" d="M568.996 154.931C568.55 159.978 567.494 165.917 562.907 168.03C560.314 169.203 557.287 168.793 554.471 169.203C549.144 170.072 544.78 174.168 542.304 178.957C539.828 183.745 538.995 189.203 538.42 194.567C537.705 201.28 537.47 208.569 541.154 214.226C544.134 218.815 549.285 221.597 554.565 223.017C559.877 224.403 565.429 224.602 570.827 223.6C576.224 222.598 581.335 220.419 585.797 217.219C590.054 213.888 593.913 210.075 597.295 205.858C604.945 196.95 612.653 187.184 614.214 175.541C614.401 174.215 614.39 172.619 613.299 171.833C612.554 171.414 611.694 171.245 610.846 171.351L603.502 171.48C601.636 171.48 599.536 171.48 598.281 170.084C597.025 168.687 597.107 166.915 597.107 165.201L597.671 143.922C597.788 143.171 597.616 142.404 597.19 141.774C596.724 141.349 596.129 141.092 595.5 141.047C591.464 140.366 587.287 141.047 583.275 139.943C579.508 138.911 573.607 134.58 570.838 139.028C568.515 142.878 569.383 150.647 568.996 154.931Z" fill="black"/>
<path d="M587.475 153.558C602.961 153.558 615.516 140.999 615.516 125.507C615.516 110.015 602.961 97.4559 587.475 97.4559C571.988 97.4559 559.434 110.015 559.434 125.507C559.434 140.999 571.988 153.558 587.475 153.558Z" fill="#FFC1C7"/>
<path d="M557.392 203.499C552.863 203.593 547.748 202.325 545.554 198.346C544.052 195.623 544.31 192.313 544.592 189.227L546.223 171.95C541.823 171.492 537.095 171.093 533.246 173.276C528.154 176.163 526.312 182.572 525.737 188.405C524.67 199.356 526.406 210.412 525.808 221.397C525.303 230.646 523.18 240.176 525.89 248.979C527.063 252.665 528.964 256.021 530.196 259.718C531.566 264.42 532.354 269.273 532.542 274.166C532.965 279.401 533.364 284.812 531.615 289.765C530.149 293.92 527.298 297.406 525.256 301.302C521.913 307.734 521.197 316.396 526.218 321.619C530.806 326.396 538.421 326.595 544.862 325.14C551.303 323.684 557.486 320.75 564.092 320.445C575.754 319.952 586.149 327.487 597.565 329.975C599.095 330.396 600.702 330.453 602.258 330.14C603.628 329.698 604.902 329.001 606.013 328.086L612.254 323.602C613.501 322.851 614.538 321.797 615.27 320.539C615.804 319.144 615.938 317.628 615.657 316.161C613.568 296.713 602.563 278.028 605.743 258.721C606.738 253.665 608.252 248.725 610.26 243.979C618.179 223.721 627.671 202.665 624.597 181.128C623.917 176.363 622.52 171.48 619.235 167.959C615.95 164.438 610.401 162.678 606.142 164.931C601.883 167.185 600.346 172.208 598.504 176.586C594.873 185.054 589.123 192.443 581.808 198.041C578.711 200.388 574.98 203.44 570.932 203.557C566.52 203.71 561.898 203.417 557.392 203.499Z" fill="#F2F2F2"/>
<path d="M516.727 247.078C509.933 254.625 508.596 265.493 507.845 275.634C505.794 303.48 505.719 331.437 507.622 359.294C507.72 363.423 508.42 367.515 509.699 371.442C511.142 375.303 513.864 378.883 517.689 380.421C520.141 381.406 523.555 381.148 524.728 378.742C525.749 376.536 524.236 374.047 523.086 371.946C520.471 367.019 519.599 361.353 520.61 355.867C522.006 356.9 522.487 358.719 522.886 360.409L525.08 369.799C528.096 369.353 529.222 365.679 529.703 362.674C530.583 357.228 531.428 351.442 529.245 346.384C528.072 343.684 526.136 341.384 524.975 338.696C522.042 331.912 520.88 324.166 522.769 317.018C529.125 292.908 531.892 267.993 530.982 243.075C526.617 245.526 521.729 246.899 516.727 247.078V247.078Z" fill="#FFC1C7"/>
<path d="M510.309 254.707C518.679 254.79 527.007 255.89 535.112 257.981C536.18 252.7 535.663 247.23 535.112 241.867L531.592 204.989C531.334 202.243 531.827 177.173 526.547 181.598C524.599 183.229 522.147 197.9 521.537 200.259C520.622 203.78 519.895 207.407 519.191 211.022C517.877 218.44 516.973 225.916 515.671 233.322C515.366 235.482 512.198 254.718 510.309 254.707Z" fill="#F2F2F2"/>
<path d="M576.786 89.8505C576.747 88.9766 576.946 88.1086 577.361 87.3387C577.725 86.88 578.18 86.5015 578.696 86.2268C579.213 85.9521 579.781 85.7872 580.365 85.7425C584.413 85.1205 588.848 86.7519 592.508 84.8975C594.491 83.8999 595.887 82.0219 597.823 80.9304C602.375 78.36 608.124 80.9304 612.161 84.2754C618.588 89.6044 623.272 96.7383 625.606 104.756C627.39 110.953 628.117 118.195 633.256 122.103C635.38 123.723 638.125 124.615 639.674 126.798C640.738 128.574 641.324 130.596 641.375 132.667C641.903 137.361 642.349 142.209 641.117 146.751C640.19 150.155 638.36 153.253 637.233 156.598C635.703 161.338 635.56 166.418 636.822 171.236C638.084 176.055 640.698 180.412 644.355 183.792C642.488 184.969 640.232 185.361 638.078 184.884C638.124 185.874 638.44 186.832 638.993 187.654C632.423 187.454 626.721 181.058 620.303 182.454C615.41 183.511 612.677 188.581 609.016 192.008C604.323 196.445 596.99 198.299 591.077 195.67C585.164 193.041 581.573 185.576 584.037 179.614C586.888 172.818 595.7 170.143 598.762 163.429C601.108 158.23 599.372 152.173 599.876 146.481C600.31 141.598 602.422 137.091 603.736 132.326C605.051 127.561 605.473 122.209 602.798 118.101C599.97 113.747 594.585 112.045 589.587 110.425C578.511 106.752 576.364 101.13 576.786 89.8505Z" fill="#192534"/>
<path d="M583.673 190.67C582.876 186.75 582.09 182.584 583.497 178.851C586.114 171.88 594.69 169.708 600.627 165.225C604.066 162.613 606.707 159.093 608.253 155.061C609.333 152.22 609.427 148.335 606.822 146.845C605.791 146.359 604.648 146.16 603.513 146.27C594.268 146.481 585.797 151.516 578.711 157.455C574.581 160.917 570.662 164.884 568.609 169.861C567.315 173.451 566.526 177.204 566.262 181.011L564.819 193.593C563.85 200.789 563.29 208.035 563.141 215.294C563.135 219.45 563.394 223.601 563.916 227.724C564.291 230.658 564.843 233.674 566.555 236.08C569.759 240.552 575.942 241.55 581.409 241.702C583.49 241.827 585.578 241.697 587.627 241.315C596.755 239.331 603.689 226.527 596.779 218.616C593.834 215.259 589.423 215.177 587.756 210.564C585.527 204.449 584.941 197.067 583.673 190.67Z" fill="#FFC1C7"/>
<path d="M591.1 192.865L583.885 204.661C583.452 205.268 583.152 205.96 583.005 206.691C582.805 208.229 583.943 209.578 584.858 210.834C591.077 219.32 589.551 231.01 587.627 241.35C597.546 238.208 606.379 232.333 613.113 224.399C619.847 216.465 624.209 206.793 625.7 196.492C626.615 190.33 628.046 180.166 622.602 176.152C609.427 166.492 597.283 182.783 591.1 192.865Z" fill="#F2F2F2"/>
<path d="M554.435 169.239C557.251 168.793 560.302 169.239 562.871 168.065C567.459 165.952 568.515 160.014 568.96 154.967C568.96 154.509 569.031 153.993 569.043 153.453C567.407 151.736 565.624 150.165 563.716 148.758C561.99 147.775 560.16 146.987 558.26 146.41L553.262 144.58C552.77 145.938 552.377 147.33 552.089 148.746C551.514 152.126 551.995 155.659 551.162 158.981C550.222 161.952 548.764 164.733 546.856 167.196L539.359 178.182C540.72 177.854 542.057 177.49 543.407 177.102C544.603 175.102 546.201 173.37 548.099 172.017C549.997 170.663 552.154 169.718 554.435 169.239V169.239Z" fill="#192534"/>
<path d="M0.0704346 213.555C0.0704346 305.85 75.4211 380.669 167.716 380.669C260.01 380.669 335.361 305.85 335.361 213.555C335.361 121.261 260.01 46.4413 167.716 46.4413C75.4211 46.4413 0.0704346 121.261 0.0704346 213.555Z" fill="#79CF82"/>
<path d="M288.695 219.158C281.526 221.881 264.854 222.186 257.462 222.174C255.21 222.174 253.813 222.174 253.813 222.174L249.062 212.515L253.813 204.452C253.813 204.452 258.154 203.278 263.95 202.21C272.492 200.672 284.178 199.463 289.762 202.926C299.078 208.595 298.01 215.555 288.695 219.158Z" fill="#A0616A"/>
<path opacity="0.1" d="M257.462 222.116C255.21 222.116 253.813 222.116 253.813 222.116L249.062 212.456L253.813 204.393C253.813 204.393 258.154 203.219 263.95 202.151C259.293 205.59 247.971 213.067 257.462 222.116Z" fill="black"/>
<path d="M178.83 103.397L180.93 100.991C180.93 100.991 191.712 118.068 192.85 124.465C193.988 130.861 195.42 138.326 195.42 138.326C195.42 138.326 198.165 146.706 199.937 150.415C201.708 154.124 203.316 157.657 203.457 159.276C203.597 160.896 202.811 164.429 206.19 166.682C209.569 168.936 210.379 175.063 210.379 175.063C210.379 175.063 222.628 186.987 229.069 187.316C235.51 187.644 254.036 190.837 253.391 194.076C252.746 197.316 261.123 199.241 264.502 200.039C267.881 200.837 242.761 210.52 257.462 222.926C257.462 222.926 248.076 224.862 247.149 227.116C246.222 229.369 236.367 225.825 236.367 225.825C236.367 225.825 234.267 220.825 226.981 220.508C219.695 220.191 216.034 216.987 216.034 216.482C216.034 215.977 208.783 211.963 204.759 210.837C200.735 209.71 195.373 209.229 195.244 208.102C195.115 206.975 171.086 103.35 171.086 103.35L178.83 103.397Z" fill="#192534"/>
<path opacity="0.05" d="M178.83 103.397L180.93 100.991C180.93 100.991 191.712 118.068 192.85 124.465C193.988 130.861 195.42 138.326 195.42 138.326C195.42 138.326 198.165 146.706 199.937 150.415C201.708 154.124 203.316 157.657 203.457 159.276C203.597 160.896 202.811 164.429 206.19 166.682C209.569 168.936 210.379 175.063 210.379 175.063C210.379 175.063 222.628 186.987 229.069 187.316C235.51 187.644 254.036 190.837 253.391 194.076C252.746 197.316 261.123 199.241 264.502 200.039C267.881 200.837 242.761 210.52 257.462 222.926C257.462 222.926 248.076 224.862 247.149 227.116C246.222 229.369 236.367 225.825 236.367 225.825C236.367 225.825 234.267 220.825 226.981 220.508C219.695 220.191 216.034 216.987 216.034 216.482C216.034 215.977 208.783 211.963 204.759 210.837C200.735 209.71 195.373 209.229 195.244 208.102C195.115 206.975 171.086 103.35 171.086 103.35L178.83 103.397Z" fill="black"/>
<path fill-rule="evenodd" clip-rule="evenodd" d="M228.525 369.289C228.115 367.782 227.802 366.808 227.802 366.808C227.802 366.808 223.684 345.036 223.93 335.118C224.176 325.201 213.3 290.753 213.3 290.753C211.893 288.512 211.297 285.857 211.611 283.23C211.834 281.164 210.555 277.831 209.123 274.838L208.666 273.911C207.129 270.847 205.568 268.359 205.568 268.359L187.324 239.604L185.236 240.284L181.575 241.458L168.517 245.66L138.012 253.664L136.909 253.958L118.782 258.711L105.477 269.427L105.207 269.65L98.8479 274.779C98.8479 274.779 99.2703 277.655 99.8686 281.176C99.883 281.257 99.8973 281.34 99.9116 281.422C99.9798 281.813 100.049 282.212 100.127 282.619C100.913 287.009 101.898 291.962 102.708 293.758C104.327 297.267 105.899 303.182 105.054 305.119C104.617 306.121 105.248 307.764 105.858 309.353C106.427 310.834 106.978 312.267 106.627 313.088C105.899 314.79 109.044 320.342 109.044 320.342C109.044 320.342 112.2 331.14 112.059 334.731C111.918 338.323 115.438 361.796 115.438 361.796C115.438 361.796 113.867 367.048 113.314 371.635C126.186 376.049 139.757 378.943 153.809 380.099C154.514 373.72 155.386 367.783 156.092 366.268C157.781 362.641 159.717 327.114 159.717 327.114C159.717 327.114 160.21 328.452 160.89 330.388C162.486 334.954 165.349 342.888 166.522 344.754C167.461 346.221 170.23 350.928 172.517 354.848C174.395 358.04 175.943 360.717 175.943 360.717C175.943 360.717 177.516 366.374 176.436 369.895C176.006 371.401 177.968 375.737 180.415 380.194C197.255 378.93 213.417 375.172 228.525 369.289Z" fill="#192534"/>
<path d="M156.045 104.606C155.27 104.289 102.72 82.5759 109.959 78.2684C114.253 75.6981 119.533 64.8532 123.158 56.3557C125.692 50.4168 127.405 45.6282 127.405 45.6282C127.405 45.6282 169.584 38.14 154.484 64.0081C152.104 67.9722 150.313 72.2621 149.169 76.7426C144.84 94.3597 155.669 104.277 156.045 104.606Z" fill="#A0616A"/>
<path opacity="0.1" d="M154.461 64.0081C152.08 67.9722 150.29 72.2621 149.146 76.7427C143.794 76.3681 138.646 74.5393 134.256 71.4534C129.867 68.3675 126.403 64.1415 124.237 59.2312C123.818 58.2933 123.45 57.3334 123.135 56.3557C125.669 50.4168 127.382 45.6282 127.382 45.6282C127.382 45.6282 169.561 38.14 154.461 64.0081Z" fill="black"/>
<path d="M180.684 46.3558C180.688 53.812 177.868 60.9929 172.79 66.4513C167.712 71.9097 160.755 75.2399 153.32 75.7708C145.886 76.3017 138.526 73.9938 132.725 69.3122C126.924 64.6307 123.112 57.9234 122.058 50.5421C121.004 43.1608 122.786 35.6543 127.045 29.535C131.303 23.4158 137.723 19.1389 145.008 17.5661C152.294 15.9933 159.905 17.2416 166.308 21.0594C172.71 24.8772 177.428 30.9807 179.51 38.14C180.287 40.8096 180.682 43.5756 180.684 46.3558Z" fill="#A0616A"/>
<path opacity="0.1" d="M209.124 274.85C206.038 277.655 204.841 282.995 204.841 282.995C204.841 282.995 190.351 292.913 191.313 286.622C192.275 280.331 183.828 254.932 183.828 254.932L184.79 289.579C184.79 289.579 138.399 287.408 135.02 284.028C131.641 280.648 111.824 274.11 111.824 274.11C111.824 274.11 105.759 278.981 100.174 282.678C99.4346 278.511 98.8949 274.838 98.8949 274.838L118.84 258.758L168.611 245.707L187.383 239.662L205.627 268.429C206.899 270.51 208.066 272.653 209.124 274.85V274.85Z" fill="black"/>
<path d="M210.649 272.115C206.777 274.533 205.334 281.058 205.334 281.058C205.334 281.058 190.832 290.976 191.794 284.685C192.756 278.394 184.309 252.995 184.309 252.995L185.271 287.561C185.271 287.561 138.88 285.389 135.501 282.009C132.122 278.629 112.305 272.091 112.305 272.091C112.305 272.091 95.1521 285.87 92.0078 284.662C88.8634 283.453 97.5573 260.014 97.5573 260.014L106.498 122.693C106.498 122.693 104.092 81.8482 107.671 80.4397C108.233 80.2179 108.749 79.8957 109.196 79.4891C111.543 77.3412 112.305 72.9868 112.505 69.3249C112.751 64.9705 118.547 67.1419 118.547 67.1419L115.168 71.4962L145.11 89.7119L145.368 89.8645C146.536 89.2521 147.739 88.7074 148.97 88.2331C151.622 87.2119 155.141 86.2612 157.453 87.2119C158.743 87.8644 159.836 88.8488 160.621 90.064C162.328 92.616 163.701 95.3773 164.704 98.2798L175.568 116.648C175.568 116.648 181.129 141.061 181.129 142.035C181.129 143.009 182.819 165.239 184.755 167.657C186.691 170.074 188.626 182.152 187.899 185.778C187.172 189.405 189.072 202.938 189.072 202.938C197.039 209.463 201.145 231.705 201.145 231.705C201.145 231.705 213.711 256.599 214.685 259.509C215.659 262.42 214.509 269.697 210.649 272.115Z" fill="#F2F2F2"/>
<path opacity="0.1" d="M145.145 90.6743C142.2 95.0287 133.729 101.144 133.729 101.144L109.231 80.4515C111.578 78.3037 112.34 73.9493 112.54 70.2874C112.786 65.933 118.582 68.116 118.582 68.116L117.878 69.0198C117.542 69.4536 117.302 69.9535 117.172 70.4867C117.043 71.02 117.028 71.5746 117.127 72.1142C117.227 72.6538 117.44 73.1662 117.751 73.618C118.062 74.0697 118.466 74.4506 118.934 74.7357L145.145 90.6743Z" fill="black"/>
<path d="M145.145 89.7119C142.2 94.0545 133.729 100.181 133.729 100.181L109.231 79.4891C111.578 77.3412 112.34 72.9868 112.54 69.3249C112.786 64.9705 118.582 67.1419 118.582 67.1419L117.878 68.0456C117.542 68.4794 117.302 68.9793 117.172 69.5125C117.043 70.0458 117.028 70.6004 117.127 71.14C117.227 71.6796 117.44 72.192 117.751 72.6438C118.062 73.0955 118.466 73.4764 118.934 73.7615L145.145 89.7119Z" fill="#F2F2F2"/>
<path opacity="0.1" d="M156.467 92.963C153.299 96.754 148.829 101.038 149.029 98.8315C149.228 96.6249 146.353 91.9302 144.523 89.8058C147.392 88.895 150.485 88.9819 153.299 90.0523C154.597 90.7209 155.691 91.7263 156.467 92.963V92.963Z" fill="black"/>
<path d="M156.948 91.5194C153.792 95.2987 149.31 99.5943 149.51 97.4465C149.709 95.2986 147.163 91.8128 145.298 89.6884C147.949 88.6673 151.469 87.7049 153.78 88.6556C155.073 89.3099 156.167 90.2988 156.948 91.5194V91.5194Z" fill="#F2F2F2"/>
<path d="M149.029 111.625C150.098 111.625 150.965 110.758 150.965 109.688C150.965 108.619 150.098 107.751 149.029 107.751C147.96 107.751 147.093 108.619 147.093 109.688C147.093 110.758 147.96 111.625 149.029 111.625Z" fill="#192534"/>
<path d="M163.683 163.83C164.752 163.83 165.619 162.963 165.619 161.894C165.619 160.824 164.752 159.957 163.683 159.957C162.614 159.957 161.747 160.824 161.747 161.894C161.747 162.963 162.614 163.83 163.683 163.83Z" fill="#192534"/>
<path d="M180.285 216.682C181.354 216.682 182.22 215.815 182.22 214.745C182.22 213.675 181.354 212.808 180.285 212.808C179.215 212.808 178.349 213.675 178.349 214.745C178.349 215.815 179.215 216.682 180.285 216.682Z" fill="#192534"/>
<path d="M180.765 274.216C181.835 274.216 182.701 273.349 182.701 272.279C182.701 271.21 181.835 270.343 180.765 270.343C179.696 270.343 178.83 271.21 178.83 272.279C178.83 273.349 179.696 274.216 180.765 274.216Z" fill="#192534"/>
<path d="M157.57 136.272C158.639 136.272 159.506 135.405 159.506 134.336C159.506 133.266 158.639 132.399 157.57 132.399C156.501 132.399 155.634 133.266 155.634 134.336C155.634 135.405 156.501 136.272 157.57 136.272Z" fill="#192534"/>
<path d="M170.617 189.933C171.686 189.933 172.553 189.066 172.553 187.997C172.553 186.927 171.686 186.06 170.617 186.06C169.548 186.06 168.681 186.927 168.681 187.997C168.681 189.066 169.548 189.933 170.617 189.933Z" fill="#192534"/>
<path d="M183.347 242.632C184.416 242.632 185.283 241.765 185.283 240.695C185.283 239.626 184.416 238.759 183.347 238.759C182.278 238.759 181.411 239.626 181.411 240.695C181.411 241.765 182.278 242.632 183.347 242.632Z" fill="#192534"/>
<path d="M180.437 280.659C181.506 280.659 182.373 279.792 182.373 278.723C182.373 277.653 181.506 276.786 180.437 276.786C179.368 276.786 178.501 277.653 178.501 278.723C178.501 279.792 179.368 280.659 180.437 280.659Z" fill="#192534"/>
<path opacity="0.1" d="M109.243 80.6628C109.243 80.6628 109.56 77.752 105.371 82.7519C101.183 87.7519 93.2984 92.1415 93.2984 92.1415C93.2984 92.1415 75.4178 104.712 74.4439 110.521C73.4701 116.331 67.6859 141.46 70.7364 149.84C73.7869 158.22 97.1584 198.337 97.1584 198.337C97.1584 198.337 91.034 205.59 92.4654 214.135C93.8967 222.679 95.6918 234.439 94.8823 237.01C94.0727 239.58 95.8444 246.035 93.1107 248.289C90.3769 250.542 87.4672 254.416 96.0086 259.58C96.0086 259.58 97.616 263.923 96.1729 264.897C94.7298 265.871 117.597 275.847 126.619 270.53C135.642 265.214 151.903 222.667 152.232 213.16C152.56 203.654 147.257 172.21 144.312 164.793C141.367 157.375 132.708 128.538 129.06 122.094C125.411 115.65 109.243 80.6628 109.243 80.6628Z" fill="black"/>
<path d="M108.269 80.6628C108.269 80.6628 108.598 77.752 104.409 82.7519C100.221 87.7519 92.3246 92.1415 92.3246 92.1415C92.3246 92.1415 74.4439 104.712 73.4819 110.521C72.5198 116.331 66.7121 141.46 69.7743 149.84C72.8366 158.22 96.2081 198.313 96.2081 198.313C96.2081 198.313 90.0836 205.567 91.515 214.111C92.9464 222.656 94.7298 234.416 93.9319 236.986C93.1341 239.557 94.894 246.012 92.1603 248.266C89.4266 250.519 86.5169 254.392 95.0583 259.556C95.0583 259.556 96.6656 263.899 95.2108 264.873C93.7559 265.847 116.635 275.824 125.716 270.507C134.797 265.19 151.011 222.644 151.328 213.137C151.645 203.63 146.342 172.21 143.444 164.793C140.546 157.375 131.84 128.538 128.133 122.094C124.425 115.65 108.269 80.6628 108.269 80.6628Z" fill="#192534"/>
<path opacity="0.1" d="M101.828 108.08C101.828 108.08 115.684 123.338 115.203 133.537C115.203 133.537 115.368 117.106 101.828 108.08Z" fill="black"/>
<path opacity="0.1" d="M120.999 133.209C120.999 133.702 130.385 168.502 129.857 172.856C129.329 177.21 132.579 190.097 132.579 190.097L136.92 188.924C136.92 188.924 133.541 171.037 132.896 164.429C132.251 157.821 120.999 133.209 120.999 133.209Z" fill="black"/>
<path opacity="0.1" d="M124.707 232.479C124.378 232.961 102.638 257.62 108.762 259.392C114.886 261.164 124.707 232.479 124.707 232.479Z" fill="black"/>
<path opacity="0.1" d="M106.826 226.2C106.345 226.529 98.1322 243.935 97.1584 239.263C96.1845 234.592 104.198 251.986 105.536 239.099L106.826 226.2Z" fill="black"/>
<path opacity="0.1" d="M148.583 86.1556C148.583 86.1556 157.57 80.6628 168.845 94.747C168.845 94.747 177.058 99.4418 179.475 100.545C181.892 101.648 184.626 131.648 184.626 131.648C184.626 131.648 189.941 144.558 188.497 151.953C187.054 159.347 192.686 184.816 192.686 184.816C192.686 184.816 202.072 230.59 201.708 231.869C201.345 233.148 192.205 217.527 192.322 209.792C192.44 202.057 184.59 177.891 183.464 176.436C182.338 174.98 174.606 133.573 174.606 133.573C174.606 133.573 168.329 115.967 164.293 110.205C160.257 104.442 155.282 93.4442 153.182 91.5077C151.675 90.2064 149.993 89.1238 148.184 88.2918L148.583 86.1556Z" fill="black"/>
<path d="M148.466 86.1556C148.466 86.1556 158.532 80.6862 169.807 94.7001C169.807 94.7001 178.02 99.3948 180.437 100.498C182.854 101.601 185.6 131.601 185.6 131.601C185.6 131.601 190.914 144.511 189.46 151.906C188.005 159.3 193.648 184.769 193.648 184.769C193.648 184.769 203.034 230.543 202.671 231.822C202.307 233.101 193.167 217.48 193.284 209.745C193.402 202.01 185.553 177.844 184.426 176.389C183.3 174.933 175.556 133.526 175.556 133.526C175.556 133.526 169.279 115.92 165.255 110.158C161.231 104.395 156.233 93.3973 154.132 91.4607C152.343 90.0567 150.328 88.9691 148.172 88.2448L148.466 86.1556Z" fill="#192534"/>
<path d="M192.686 186.87C192.686 186.87 211.857 174.311 221.114 180.508C230.371 186.705 245.518 195.496 230.618 201.858C215.717 208.219 195.103 207.022 195.103 207.022L192.686 186.87Z" fill="#A0616A"/>
<path opacity="0.1" d="M179.358 308.135C176.495 314.274 174.148 345.071 172.541 354.836C170.253 350.916 167.484 346.222 166.545 344.754C165.372 342.888 162.509 334.954 160.914 330.388C162.732 325.964 167.777 313.276 167.777 308.617C167.777 302.936 176.964 295.812 176.964 295.812C178.616 297.348 179.737 299.369 180.167 301.583C180.597 303.798 180.314 306.092 179.358 308.135Z" fill="black"/>
<path opacity="0.1" d="M179.51 38.187C179.056 38.4371 178.576 38.6378 178.079 38.7856C175.814 39.3959 173.597 37.8701 171.579 36.6494C169.561 35.4288 166.792 34.525 165.056 36.1095C162.779 38.1635 164.422 42.5766 162.087 44.5718C160.597 45.8394 158.251 45.4052 156.596 46.4497C154.942 47.4943 154.461 49.7478 154.039 51.7196C153.616 53.6914 152.795 55.9097 150.871 56.4848C148.947 57.0599 147.175 55.804 145.274 55.8745C144.887 55.8745 144.429 55.9331 144.101 55.6515C143.932 55.3913 143.865 55.0777 143.913 54.7712C144.16 52.4064 143.953 50.0161 143.303 47.7291C142.965 46.5983 142.333 45.5776 141.471 44.7714C140.609 43.9651 139.549 43.4021 138.399 43.1399C134.996 42.6118 132.145 45.5812 130.186 48.3746C128.091 51.3193 126.183 54.3926 124.472 57.5763C124.39 57.7406 124.296 57.9636 124.191 58.2218C122.561 54.5236 121.71 50.5299 121.688 46.4885C121.666 42.4472 122.474 38.4445 124.063 34.7287C125.652 31.013 127.987 27.6635 130.924 24.8881C133.86 22.1128 137.336 19.9708 141.135 18.595C144.933 17.2193 148.974 16.6392 153.006 16.8906C157.038 17.1421 160.976 18.2199 164.574 20.057C168.173 21.8941 171.355 24.4513 173.925 27.5701C176.494 30.6889 178.395 34.3026 179.51 38.187Z" fill="black"/>
<path d="M130.233 47.9403C132.227 45.1469 135.079 42.1775 138.446 42.7057C139.595 42.9701 140.654 43.5338 141.515 44.3398C142.377 45.1457 143.01 46.1652 143.35 47.2948C144 49.5818 144.207 51.9721 143.96 54.3369C143.934 54.4896 143.938 54.6459 143.972 54.797C144.006 54.9481 144.07 55.0909 144.16 55.2172C144.418 55.4989 144.875 55.4519 145.262 55.4402C147.151 55.3698 149.04 56.6139 150.859 56.0505C152.678 55.4871 153.604 53.2454 154.027 51.2736C154.449 49.3018 154.883 47.0835 156.585 46.0155C158.286 44.9474 160.585 45.4052 162.075 44.1376C164.422 42.1423 162.756 37.7292 165.032 35.6635C166.78 34.0908 169.561 34.9945 171.567 36.2152C173.573 37.4358 175.803 38.9616 178.067 38.3513C178.818 38.0775 179.555 37.7641 180.273 37.4123C183.851 36.0508 188.486 38.363 191.442 35.91C192.511 34.8409 193.28 33.5091 193.672 32.0486C194.48 30.0739 195.028 28.0026 195.302 25.8867C195.562 23.7495 194.972 21.5958 193.66 19.8892C191.747 17.6239 188.509 17.0606 186.057 15.3939C184.069 13.8314 182.417 11.8833 181.2 9.66632C179.996 7.44727 178.406 5.46017 176.507 3.79788C174.5 2.27208 171.661 1.5444 169.467 2.68288C168.75 3.17562 167.957 3.54825 167.12 3.78615C166.218 3.80236 165.33 3.55785 164.563 3.08193C156.174 -0.861668 146.424 -0.169178 137.237 1.00451C133.537 1.30764 129.907 2.18675 126.478 3.6101C124.766 4.33497 123.231 5.42129 121.978 6.79473C120.724 8.16817 119.782 9.79631 119.216 11.5677C118.465 14.408 119.04 17.4361 118.137 20.2882C117.526 22.1896 116.271 23.8093 115.555 25.6754C113.596 30.7692 115.942 36.3677 116.94 41.7432C118.019 47.6117 117.468 53.9613 119.967 59.5011C120.46 60.5927 120.999 62.5058 122.231 61.7781C123.146 61.2499 124.026 58.1514 124.578 57.189C126.272 53.9933 128.16 50.9046 130.233 47.9403V47.9403Z" fill="#192534"/>
<path opacity="0.1" d="M77.1894 142.399L72.8365 154.805C72.8365 154.805 83.1496 193.161 87.9835 201.212C92.8173 209.264 99.9039 219.592 99.9039 219.592C107.99 223.232 116.984 224.353 125.716 222.808C139.572 220.073 180.003 212.82 180.003 212.82C180.003 212.82 183.394 213.466 185.165 210.884C186.937 208.301 196.112 207.022 196.112 207.022C196.112 207.022 206.742 191.553 193.695 185.098C193.695 185.098 192.088 188.619 185.165 186.271C178.243 183.924 176.143 188.196 176.143 188.196C176.143 188.196 164.868 190.461 158.544 189.651C152.22 188.842 136.639 188.478 135.078 187.234C134.67 186.871 134.135 186.684 133.59 186.715C133.044 186.746 132.533 186.991 132.169 187.398C132.169 187.398 128.309 185.943 127.018 184.499C125.728 183.055 123.956 186.107 123.956 186.107C123.956 186.107 121.703 184.816 122.349 183.208C122.994 181.6 120.248 175.473 120.248 175.473C119.528 173.126 119.363 170.642 119.767 168.22C120.577 164.992 115.743 153.396 115.743 153.396C115.676 151.439 115.893 149.482 116.388 147.586C117.198 144.687 110.264 138.889 110.264 138.889C110.264 138.889 103.506 106.026 89.145 116.812C74.7842 127.599 77.1894 142.399 77.1894 142.399Z" fill="black"/>
<path d="M76.2625 142.399L71.9214 154.805C71.9214 154.805 82.2227 193.161 87.0566 201.212C91.8905 209.264 98.977 219.592 98.977 219.592C107.064 223.23 116.057 224.351 124.789 222.808C138.645 220.073 179.076 212.82 179.076 212.82C179.076 212.82 182.455 213.466 184.227 210.884C185.998 208.301 195.185 207.022 195.185 207.022C195.185 207.022 205.815 191.553 192.768 185.098C192.768 185.098 191.161 188.619 184.227 186.271C177.293 183.924 175.204 188.196 175.204 188.196C175.204 188.196 163.929 190.461 157.605 189.651C151.281 188.842 135.7 188.478 134.081 187.234C133.675 186.871 133.142 186.685 132.598 186.716C132.055 186.747 131.546 186.992 131.183 187.398C131.183 187.398 127.323 185.943 126.033 184.499C124.742 183.055 122.97 186.107 122.97 186.107C122.97 186.107 120.718 184.816 121.363 183.208C122.008 181.6 119.263 175.473 119.263 175.473C118.536 173.127 118.371 170.642 118.782 168.22C119.591 164.992 114.757 153.396 114.757 153.396C114.69 151.439 114.908 149.482 115.403 147.586C116.201 144.687 109.278 138.889 109.278 138.889C109.278 138.889 102.509 106.026 88.1595 116.812C73.8104 127.599 76.2625 142.399 76.2625 142.399Z" fill="#192534"/>
<path opacity="0.1" d="M180.93 194.288C180.766 195.461 177.222 199.933 178.513 200.731C179.804 201.529 181.892 201.06 179.956 203.63C178.02 206.2 178.184 210.085 179.475 209.592C180.766 209.1 182.854 203.313 182.854 201.06C182.854 198.806 180.93 194.288 180.93 194.288Z" fill="black"/>
<path opacity="0.1" d="M133.084 191.705C133.084 191.705 132.11 202.985 124.226 206.212C116.341 209.44 133.084 191.705 133.084 191.705Z" fill="black"/>
<path opacity="0.1" d="M116.646 187.844C116.165 188.008 105.371 193.806 110.205 197.233C115.039 200.661 116.646 187.844 116.646 187.844Z" fill="black"/>
<path opacity="0.1" d="M116.001 179.781C116.001 179.781 100.221 183.008 105.536 185.743C110.85 188.478 116.001 179.781 116.001 179.781Z" fill="black"/>
<g opacity="0.1">
<path opacity="0.1" d="M143.385 44.5601C143.046 43.4289 142.413 42.4076 141.552 41.5997C140.691 40.7917 139.631 40.2258 138.481 39.9593C135.078 39.4428 132.227 42.4122 130.268 45.2056C128.177 48.1531 126.269 51.2262 124.554 54.4074C124.038 55.3698 123.158 58.4566 122.208 58.9965C121.034 59.7124 120.436 57.8228 119.943 56.7195C117.444 51.168 117.996 44.8183 116.916 38.9499C116.283 35.5227 115.098 32.0134 114.84 28.5862C114.464 32.7998 116.118 37.2363 116.916 41.4968C117.996 47.3652 117.444 53.7149 119.943 59.2547C120.436 60.3462 120.976 62.2593 122.208 61.5317C123.123 61.0035 124.003 57.9167 124.554 56.9542C126.254 53.7869 128.151 50.7293 130.233 47.7995C132.227 44.9944 135.078 42.0249 138.446 42.5531C139.595 42.8175 140.654 43.3813 141.515 44.1872C142.377 44.9932 143.01 46.0126 143.35 47.1422C143.74 48.3134 143.957 49.5351 143.995 50.7689C144.185 48.6793 143.978 46.5728 143.385 44.5601V44.5601Z" fill="black"/>
<path opacity="0.1" d="M193.707 29.2552C193.315 30.7191 192.546 32.0546 191.478 33.1284C188.533 35.5814 183.886 33.2692 180.308 34.6307C179.557 34.9124 178.877 35.3584 178.102 35.5697C175.838 36.1682 173.62 34.6424 171.602 33.4218C169.584 32.2012 166.815 31.2974 165.067 32.8819C162.791 34.9476 164.445 39.3607 162.111 41.3559C160.621 42.6118 158.274 42.1893 156.62 43.2221C154.965 44.255 154.484 46.5319 154.062 48.492C153.64 50.452 152.818 52.6938 150.894 53.2689C148.97 53.844 147.187 52.5764 145.298 52.6468C144.91 52.6468 144.453 52.7172 144.195 52.4238C144.133 52.3557 144.085 52.2759 144.054 52.1891C144.054 52.8346 144.054 53.4802 143.995 54.1257C143.969 54.2783 143.973 54.4346 144.007 54.5857C144.041 54.7368 144.105 54.8796 144.195 55.0059C144.453 55.2876 144.91 55.2407 145.298 55.2289C147.187 55.1585 149.076 56.4026 150.894 55.851C152.713 55.2993 153.64 53.0341 154.062 51.0741C154.484 49.114 154.918 46.8723 156.62 45.8042C158.321 44.7362 160.621 45.1939 162.111 43.9263C164.457 41.9428 162.791 37.518 165.067 35.464C166.815 33.8795 169.596 34.7833 171.602 36.0039C173.609 37.2245 175.838 38.7504 178.102 38.14C178.853 37.8703 179.59 37.5608 180.308 37.2128C183.886 35.8396 188.521 38.1635 191.478 35.6988C192.549 34.6313 193.318 33.2989 193.707 31.8373C194.515 29.8626 195.063 27.7914 195.338 25.6755C195.408 24.9573 195.408 24.234 195.338 23.5159C195.011 25.4842 194.464 27.4095 193.707 29.2552V29.2552Z" fill="black"/>
</g>
</g>
<defs>
<clipPath id="clip0">
<rect width="696" height="463" fill="white" transform="translate(0 0.218948)"/>
</clipPath>
</defs>
</svg>
